G04 #@! TF.GenerationSoftware,KiCad,Pcbnew,(5.1.5)-3*
G04 #@! TF.CreationDate,2020-02-20T21:10:07-08:00*
G04 #@! TF.ProjectId,practice,70726163-7469-4636-952e-6b696361645f,0.1*
G04 #@! TF.SameCoordinates,Original*
G04 #@! TF.FileFunction,Soldermask,Bot*
G04 #@! TF.FilePolarity,Negative*
%FSLAX46Y46*%
G04 Gerber Fmt 4.6, Leading zero omitted, Abs format (unit mm)*
G04 Created by KiCad (PCBNEW (5.1.5)-3) date 2020-02-20 21:10:07*
%MOMM*%
%LPD*%
G04 APERTURE LIST*
%ADD10C,0.100000*%
G04 APERTURE END LIST*
D10*
G36*
X181510000Y-92560000D02*
G01*
X179760000Y-92570000D01*
X179760000Y-90810000D01*
X181510000Y-90810000D01*
X181510000Y-92560000D01*
G37*
X181510000Y-92560000D02*
X179760000Y-92570000D01*
X179760000Y-90810000D01*
X181510000Y-90810000D01*
X181510000Y-92560000D01*
G36*
X181510000Y-86110000D02*
G01*
X179760000Y-86120000D01*
X179760000Y-84360000D01*
X181510000Y-84360000D01*
X181510000Y-86110000D01*
G37*
X181510000Y-86110000D02*
X179760000Y-86120000D01*
X179760000Y-84360000D01*
X181510000Y-84360000D01*
X181510000Y-86110000D01*
G36*
X181510000Y-79660000D02*
G01*
X179760000Y-79670000D01*
X179760000Y-77910000D01*
X181510000Y-77910000D01*
X181510000Y-79660000D01*
G37*
X181510000Y-79660000D02*
X179760000Y-79670000D01*
X179760000Y-77910000D01*
X181510000Y-77910000D01*
X181510000Y-79660000D01*
G36*
X181510000Y-73210000D02*
G01*
X179760000Y-73220000D01*
X179760000Y-71460000D01*
X181510000Y-71460000D01*
X181510000Y-73210000D01*
G37*
X181510000Y-73210000D02*
X179760000Y-73220000D01*
X179760000Y-71460000D01*
X181510000Y-71460000D01*
X181510000Y-73210000D01*
G36*
X181510000Y-66760000D02*
G01*
X179760000Y-66770000D01*
X179760000Y-65010000D01*
X181510000Y-65010000D01*
X181510000Y-66760000D01*
G37*
X181510000Y-66760000D02*
X179760000Y-66770000D01*
X179760000Y-65010000D01*
X181510000Y-65010000D01*
X181510000Y-66760000D01*
G36*
X152834501Y-122302054D02*
G01*
X153180461Y-122445356D01*
X153491817Y-122653397D01*
X153756603Y-122918183D01*
X153964644Y-123229539D01*
X154107946Y-123575499D01*
X154181000Y-123942768D01*
X154181000Y-124317232D01*
X154107946Y-124684501D01*
X153964644Y-125030461D01*
X153756603Y-125341817D01*
X153491817Y-125606603D01*
X153180461Y-125814644D01*
X152834501Y-125957946D01*
X152467233Y-126031000D01*
X152092767Y-126031000D01*
X151725499Y-125957946D01*
X151379539Y-125814644D01*
X151068183Y-125606603D01*
X150803397Y-125341817D01*
X150595356Y-125030461D01*
X150452054Y-124684501D01*
X150379000Y-124317232D01*
X150379000Y-123942768D01*
X150452054Y-123575499D01*
X150595356Y-123229539D01*
X150803397Y-122918183D01*
X151068183Y-122653397D01*
X151379539Y-122445356D01*
X151725499Y-122302054D01*
X152092767Y-122229000D01*
X152467233Y-122229000D01*
X152834501Y-122302054D01*
G37*
G36*
X152834501Y-116002054D02*
G01*
X153180461Y-116145356D01*
X153491817Y-116353397D01*
X153756603Y-116618183D01*
X153964644Y-116929539D01*
X154107946Y-117275499D01*
X154181000Y-117642768D01*
X154181000Y-118017232D01*
X154107946Y-118384501D01*
X153964644Y-118730461D01*
X153756603Y-119041817D01*
X153491817Y-119306603D01*
X153180461Y-119514644D01*
X152834501Y-119657946D01*
X152467233Y-119731000D01*
X152092767Y-119731000D01*
X151725499Y-119657946D01*
X151379539Y-119514644D01*
X151068183Y-119306603D01*
X150803397Y-119041817D01*
X150595356Y-118730461D01*
X150452054Y-118384501D01*
X150379000Y-118017232D01*
X150379000Y-117642768D01*
X150452054Y-117275499D01*
X150595356Y-116929539D01*
X150803397Y-116618183D01*
X151068183Y-116353397D01*
X151379539Y-116145356D01*
X151725499Y-116002054D01*
X152092767Y-115929000D01*
X152467233Y-115929000D01*
X152834501Y-116002054D01*
G37*
M02*
