M48
; DRILL file {KiCad (5.1.5)-3} date 20/02/2020 21:10:09
; FORMAT={3:3/ absolute / metric / suppress leading zeros}
; #@! TF.CreationDate,2020-02-20T21:10:09-08:00
; #@! TF.GenerationSoftware,Kicad,Pcbnew,(5.1.5)-3
; #@! TF.FileFunction,Plated,1,2,PTH
FMAT,2
METRIC,TZ
T1C0.300
%
G90
G05
T1
X180085Y-84676
X180085Y-85226
X180085Y-85776
X180635Y-84676
X180635Y-85226
X180635Y-85776
X181185Y-84676
X181185Y-85226
X181185Y-85776
X180085Y-65330
X180085Y-65880
X180085Y-66430
X180635Y-65330
X180635Y-65880
X180635Y-66430
X181185Y-65330
X181185Y-65880
X181185Y-66430
X180085Y-91125
X180085Y-91675
X180085Y-92225
X180635Y-91125
X180635Y-91675
X180635Y-92225
X181185Y-91125
X181185Y-91675
X181185Y-92225
X180085Y-78227
X180085Y-78778
X180085Y-79328
X180635Y-78227
X180635Y-78778
X180635Y-79328
X181185Y-78227
X181185Y-78778
X181185Y-79328
X180085Y-71779
X180085Y-72329
X180085Y-72879
X180635Y-71779
X180635Y-72329
X180635Y-72879
X181185Y-71779
X181185Y-72329
X181185Y-72879
T0
M30
