M48
; DRILL file {KiCad (5.1.5)-3} date 15/02/2020 00:31:27
; FORMAT={3:3/ absolute / metric / suppress leading zeros}
; #@! TF.CreationDate,2020-02-15T00:31:27-08:00
; #@! TF.GenerationSoftware,Kicad,Pcbnew,(5.1.5)-3
; #@! TF.FileFunction,Plated,1,2,PTH
FMAT,2
METRIC,TZ
T1C0.800
%
G90
G05
T1
X167430Y-112340
X172430Y-112340
X167430Y-76403
X172430Y-76403
X167430Y-79997
X172430Y-79997
X167430Y-87184
X172430Y-87184
X167430Y-65622
X172430Y-65622
X167430Y-97965
X172430Y-97965
X167430Y-54841
X172430Y-54841
X167430Y-83591
X172430Y-83591
X167430Y-94372
X172430Y-94372
X167430Y-105153
X172430Y-105153
X167430Y-101559
X172430Y-101559
X167430Y-69216
X172430Y-69216
X167430Y-58435
X172430Y-58435
X167430Y-72809
X172430Y-72809
X167430Y-108746
X172430Y-108746
X167430Y-62028
X172430Y-62028
X167430Y-47654
X172430Y-47654
X167430Y-44060
X172430Y-44060
X167430Y-90778
X172430Y-90778
X167430Y-51247
X172430Y-51247
T0
M30
