G04 #@! TF.GenerationSoftware,KiCad,Pcbnew,(5.1.5)-3*
G04 #@! TF.CreationDate,2020-02-20T21:10:07-08:00*
G04 #@! TF.ProjectId,practice,70726163-7469-4636-952e-6b696361645f,0.1*
G04 #@! TF.SameCoordinates,Original*
G04 #@! TF.FileFunction,Profile,NP*
%FSLAX46Y46*%
G04 Gerber Fmt 4.6, Leading zero omitted, Abs format (unit mm)*
G04 Created by KiCad (PCBNEW (5.1.5)-3) date 2020-02-20 21:10:07*
%MOMM*%
%LPD*%
G04 APERTURE LIST*
%ADD10C,0.050000*%
G04 APERTURE END LIST*
D10*
X194000000Y-110380000D02*
X208000000Y-110380000D01*
X208000000Y-124380000D02*
X194000000Y-124380000D01*
X208000000Y-110380000D02*
X208000000Y-124380000D01*
X194000000Y-124380000D02*
X194000000Y-110380000D01*
X170590000Y-122430000D02*
X170590000Y-119430000D01*
X167090000Y-119430000D02*
X167090000Y-122430000D01*
X170590000Y-122430000D02*
X167090000Y-122430000D01*
X167090000Y-119430000D02*
X170590000Y-119430000D01*
X166250000Y-122440000D02*
X166250000Y-119440000D01*
X166250000Y-122440000D02*
X162750000Y-122440000D01*
X162750000Y-119440000D02*
X162750000Y-122440000D01*
X162750000Y-119440000D02*
X166250000Y-119440000D01*
X192330000Y-124340000D02*
X178330000Y-124340000D01*
X178330000Y-124340000D02*
X178330000Y-110340000D01*
X192330000Y-110340000D02*
X192330000Y-124340000D01*
X178330000Y-110340000D02*
X192330000Y-110340000D01*
X109960000Y-133170000D02*
X109960000Y-33170000D01*
X209960000Y-133170000D02*
X109960000Y-133170000D01*
X209960000Y-33170000D02*
X209960000Y-133170000D01*
X109960000Y-33170000D02*
X209960000Y-33170000D01*
M02*
