M48
; DRILL file {KiCad (5.1.5)-3} date 15/02/2020 15:07:07
; FORMAT={3:3/ absolute / metric / suppress leading zeros}
; #@! TF.CreationDate,2020-02-15T15:07:07-08:00
; #@! TF.GenerationSoftware,Kicad,Pcbnew,(5.1.5)-3
; #@! TF.FileFunction,Plated,1,2,PTH
FMAT,2
METRIC,TZ
T1C0.300
%
G90
G05
T1
X180090Y-91125
X180090Y-91675
X180090Y-92225
X180640Y-91125
X180640Y-91675
X180640Y-92225
X181190Y-91125
X181190Y-91675
X181190Y-92225
X180090Y-84676
X180090Y-85226
X180090Y-85776
X180640Y-84676
X180640Y-85226
X180640Y-85776
X181190Y-84676
X181190Y-85226
X181190Y-85776
X180090Y-65330
X180090Y-65880
X180090Y-66430
X180640Y-65330
X180640Y-65880
X180640Y-66430
X181190Y-65330
X181190Y-65880
X181190Y-66430
X180090Y-78227
X180090Y-78778
X180090Y-79328
X180640Y-78227
X180640Y-78778
X180640Y-79328
X181190Y-78227
X181190Y-78778
X181190Y-79328
X180090Y-71779
X180090Y-72329
X180090Y-72879
X180640Y-71779
X180640Y-72329
X180640Y-72879
X181190Y-71779
X181190Y-72329
X181190Y-72879
T0
M30
