G04 #@! TF.GenerationSoftware,KiCad,Pcbnew,(5.1.5)-3*
G04 #@! TF.CreationDate,2020-02-15T00:31:25-08:00*
G04 #@! TF.ProjectId,practice,70726163-7469-4636-952e-6b696361645f,0.1*
G04 #@! TF.SameCoordinates,Original*
G04 #@! TF.FileFunction,Copper,L2,Bot*
G04 #@! TF.FilePolarity,Positive*
%FSLAX46Y46*%
G04 Gerber Fmt 4.6, Leading zero omitted, Abs format (unit mm)*
G04 Created by KiCad (PCBNEW (5.1.5)-3) date 2020-02-15 00:31:25*
%MOMM*%
%LPD*%
G04 APERTURE LIST*
%ADD10C,1.600000*%
G04 APERTURE END LIST*
D10*
X172430000Y-94371576D03*
X167430000Y-94371576D03*
X172430000Y-76403156D03*
X167430000Y-76403156D03*
X172430000Y-69215788D03*
X167430000Y-69215788D03*
X172430000Y-87184208D03*
X167430000Y-87184208D03*
X172430000Y-79996840D03*
X167430000Y-79996840D03*
X172430000Y-54841052D03*
X167430000Y-54841052D03*
X172430000Y-72809472D03*
X167430000Y-72809472D03*
X172430000Y-90777892D03*
X167430000Y-90777892D03*
X172430000Y-47653684D03*
X167430000Y-47653684D03*
X172430000Y-83590524D03*
X167430000Y-83590524D03*
X172430000Y-58434736D03*
X167430000Y-58434736D03*
X172430000Y-65622104D03*
X167430000Y-65622104D03*
X172430000Y-112340000D03*
X167430000Y-112340000D03*
X172430000Y-51247368D03*
X167430000Y-51247368D03*
X172430000Y-108746312D03*
X167430000Y-108746312D03*
X172430000Y-62028420D03*
X167430000Y-62028420D03*
X172430000Y-105152628D03*
X167430000Y-105152628D03*
X172430000Y-44060000D03*
X167430000Y-44060000D03*
X172430000Y-101558944D03*
X167430000Y-101558944D03*
X172430000Y-97965260D03*
X167430000Y-97965260D03*
M02*
