G04 #@! TF.GenerationSoftware,KiCad,Pcbnew,(5.1.5)-3*
G04 #@! TF.CreationDate,2020-02-15T15:07:08-08:00*
G04 #@! TF.ProjectId,practice,70726163-7469-4636-952e-6b696361645f,0.1*
G04 #@! TF.SameCoordinates,Original*
G04 #@! TF.FileFunction,Copper,L2,Bot*
G04 #@! TF.FilePolarity,Positive*
%FSLAX46Y46*%
G04 Gerber Fmt 4.6, Leading zero omitted, Abs format (unit mm)*
G04 Created by KiCad (PCBNEW (5.1.5)-3) date 2020-02-15 15:07:08*
%MOMM*%
%LPD*%
G04 APERTURE LIST*
%ADD10C,0.100000*%
%ADD11C,0.600000*%
G04 APERTURE END LIST*
G04 #@! TA.AperFunction,Conductor*
D10*
G36*
X181264504Y-84377454D02*
G01*
X181288773Y-84381054D01*
X181312571Y-84387015D01*
X181335671Y-84395280D01*
X181357849Y-84405770D01*
X181378893Y-84418383D01*
X181398598Y-84432997D01*
X181416777Y-84449473D01*
X181433253Y-84467652D01*
X181447867Y-84487357D01*
X181460480Y-84508401D01*
X181470970Y-84530579D01*
X181479235Y-84553679D01*
X181485196Y-84577477D01*
X181488796Y-84601746D01*
X181490000Y-84626250D01*
X181490000Y-85826250D01*
X181488796Y-85850754D01*
X181485196Y-85875023D01*
X181479235Y-85898821D01*
X181470970Y-85921921D01*
X181460480Y-85944099D01*
X181447867Y-85965143D01*
X181433253Y-85984848D01*
X181416777Y-86003027D01*
X181398598Y-86019503D01*
X181378893Y-86034117D01*
X181357849Y-86046730D01*
X181335671Y-86057220D01*
X181312571Y-86065485D01*
X181288773Y-86071446D01*
X181264504Y-86075046D01*
X181240000Y-86076250D01*
X180040000Y-86076250D01*
X180015496Y-86075046D01*
X179991227Y-86071446D01*
X179967429Y-86065485D01*
X179944329Y-86057220D01*
X179922151Y-86046730D01*
X179901107Y-86034117D01*
X179881402Y-86019503D01*
X179863223Y-86003027D01*
X179846747Y-85984848D01*
X179832133Y-85965143D01*
X179819520Y-85944099D01*
X179809030Y-85921921D01*
X179800765Y-85898821D01*
X179794804Y-85875023D01*
X179791204Y-85850754D01*
X179790000Y-85826250D01*
X179790000Y-84626250D01*
X179791204Y-84601746D01*
X179794804Y-84577477D01*
X179800765Y-84553679D01*
X179809030Y-84530579D01*
X179819520Y-84508401D01*
X179832133Y-84487357D01*
X179846747Y-84467652D01*
X179863223Y-84449473D01*
X179881402Y-84432997D01*
X179901107Y-84418383D01*
X179922151Y-84405770D01*
X179944329Y-84395280D01*
X179967429Y-84387015D01*
X179991227Y-84381054D01*
X180015496Y-84377454D01*
X180040000Y-84376250D01*
X181240000Y-84376250D01*
X181264504Y-84377454D01*
G37*
G04 #@! TD.AperFunction*
D11*
X181190000Y-85776250D03*
X180640000Y-85776250D03*
X180090000Y-85776250D03*
X181190000Y-85226250D03*
X180640000Y-85226250D03*
X180090000Y-85226250D03*
X181190000Y-84676250D03*
X180640000Y-84676250D03*
X180090000Y-84676250D03*
G04 #@! TA.AperFunction,Conductor*
D10*
G36*
X181264504Y-90826204D02*
G01*
X181288773Y-90829804D01*
X181312571Y-90835765D01*
X181335671Y-90844030D01*
X181357849Y-90854520D01*
X181378893Y-90867133D01*
X181398598Y-90881747D01*
X181416777Y-90898223D01*
X181433253Y-90916402D01*
X181447867Y-90936107D01*
X181460480Y-90957151D01*
X181470970Y-90979329D01*
X181479235Y-91002429D01*
X181485196Y-91026227D01*
X181488796Y-91050496D01*
X181490000Y-91075000D01*
X181490000Y-92275000D01*
X181488796Y-92299504D01*
X181485196Y-92323773D01*
X181479235Y-92347571D01*
X181470970Y-92370671D01*
X181460480Y-92392849D01*
X181447867Y-92413893D01*
X181433253Y-92433598D01*
X181416777Y-92451777D01*
X181398598Y-92468253D01*
X181378893Y-92482867D01*
X181357849Y-92495480D01*
X181335671Y-92505970D01*
X181312571Y-92514235D01*
X181288773Y-92520196D01*
X181264504Y-92523796D01*
X181240000Y-92525000D01*
X180040000Y-92525000D01*
X180015496Y-92523796D01*
X179991227Y-92520196D01*
X179967429Y-92514235D01*
X179944329Y-92505970D01*
X179922151Y-92495480D01*
X179901107Y-92482867D01*
X179881402Y-92468253D01*
X179863223Y-92451777D01*
X179846747Y-92433598D01*
X179832133Y-92413893D01*
X179819520Y-92392849D01*
X179809030Y-92370671D01*
X179800765Y-92347571D01*
X179794804Y-92323773D01*
X179791204Y-92299504D01*
X179790000Y-92275000D01*
X179790000Y-91075000D01*
X179791204Y-91050496D01*
X179794804Y-91026227D01*
X179800765Y-91002429D01*
X179809030Y-90979329D01*
X179819520Y-90957151D01*
X179832133Y-90936107D01*
X179846747Y-90916402D01*
X179863223Y-90898223D01*
X179881402Y-90881747D01*
X179901107Y-90867133D01*
X179922151Y-90854520D01*
X179944329Y-90844030D01*
X179967429Y-90835765D01*
X179991227Y-90829804D01*
X180015496Y-90826204D01*
X180040000Y-90825000D01*
X181240000Y-90825000D01*
X181264504Y-90826204D01*
G37*
G04 #@! TD.AperFunction*
D11*
X181190000Y-92225000D03*
X180640000Y-92225000D03*
X180090000Y-92225000D03*
X181190000Y-91675000D03*
X180640000Y-91675000D03*
X180090000Y-91675000D03*
X181190000Y-91125000D03*
X180640000Y-91125000D03*
X180090000Y-91125000D03*
G04 #@! TA.AperFunction,Conductor*
D10*
G36*
X181264504Y-77928704D02*
G01*
X181288773Y-77932304D01*
X181312571Y-77938265D01*
X181335671Y-77946530D01*
X181357849Y-77957020D01*
X181378893Y-77969633D01*
X181398598Y-77984247D01*
X181416777Y-78000723D01*
X181433253Y-78018902D01*
X181447867Y-78038607D01*
X181460480Y-78059651D01*
X181470970Y-78081829D01*
X181479235Y-78104929D01*
X181485196Y-78128727D01*
X181488796Y-78152996D01*
X181490000Y-78177500D01*
X181490000Y-79377500D01*
X181488796Y-79402004D01*
X181485196Y-79426273D01*
X181479235Y-79450071D01*
X181470970Y-79473171D01*
X181460480Y-79495349D01*
X181447867Y-79516393D01*
X181433253Y-79536098D01*
X181416777Y-79554277D01*
X181398598Y-79570753D01*
X181378893Y-79585367D01*
X181357849Y-79597980D01*
X181335671Y-79608470D01*
X181312571Y-79616735D01*
X181288773Y-79622696D01*
X181264504Y-79626296D01*
X181240000Y-79627500D01*
X180040000Y-79627500D01*
X180015496Y-79626296D01*
X179991227Y-79622696D01*
X179967429Y-79616735D01*
X179944329Y-79608470D01*
X179922151Y-79597980D01*
X179901107Y-79585367D01*
X179881402Y-79570753D01*
X179863223Y-79554277D01*
X179846747Y-79536098D01*
X179832133Y-79516393D01*
X179819520Y-79495349D01*
X179809030Y-79473171D01*
X179800765Y-79450071D01*
X179794804Y-79426273D01*
X179791204Y-79402004D01*
X179790000Y-79377500D01*
X179790000Y-78177500D01*
X179791204Y-78152996D01*
X179794804Y-78128727D01*
X179800765Y-78104929D01*
X179809030Y-78081829D01*
X179819520Y-78059651D01*
X179832133Y-78038607D01*
X179846747Y-78018902D01*
X179863223Y-78000723D01*
X179881402Y-77984247D01*
X179901107Y-77969633D01*
X179922151Y-77957020D01*
X179944329Y-77946530D01*
X179967429Y-77938265D01*
X179991227Y-77932304D01*
X180015496Y-77928704D01*
X180040000Y-77927500D01*
X181240000Y-77927500D01*
X181264504Y-77928704D01*
G37*
G04 #@! TD.AperFunction*
D11*
X181190000Y-79327500D03*
X180640000Y-79327500D03*
X180090000Y-79327500D03*
X181190000Y-78777500D03*
X180640000Y-78777500D03*
X180090000Y-78777500D03*
X181190000Y-78227500D03*
X180640000Y-78227500D03*
X180090000Y-78227500D03*
G04 #@! TA.AperFunction,Conductor*
D10*
G36*
X181264504Y-65031204D02*
G01*
X181288773Y-65034804D01*
X181312571Y-65040765D01*
X181335671Y-65049030D01*
X181357849Y-65059520D01*
X181378893Y-65072133D01*
X181398598Y-65086747D01*
X181416777Y-65103223D01*
X181433253Y-65121402D01*
X181447867Y-65141107D01*
X181460480Y-65162151D01*
X181470970Y-65184329D01*
X181479235Y-65207429D01*
X181485196Y-65231227D01*
X181488796Y-65255496D01*
X181490000Y-65280000D01*
X181490000Y-66480000D01*
X181488796Y-66504504D01*
X181485196Y-66528773D01*
X181479235Y-66552571D01*
X181470970Y-66575671D01*
X181460480Y-66597849D01*
X181447867Y-66618893D01*
X181433253Y-66638598D01*
X181416777Y-66656777D01*
X181398598Y-66673253D01*
X181378893Y-66687867D01*
X181357849Y-66700480D01*
X181335671Y-66710970D01*
X181312571Y-66719235D01*
X181288773Y-66725196D01*
X181264504Y-66728796D01*
X181240000Y-66730000D01*
X180040000Y-66730000D01*
X180015496Y-66728796D01*
X179991227Y-66725196D01*
X179967429Y-66719235D01*
X179944329Y-66710970D01*
X179922151Y-66700480D01*
X179901107Y-66687867D01*
X179881402Y-66673253D01*
X179863223Y-66656777D01*
X179846747Y-66638598D01*
X179832133Y-66618893D01*
X179819520Y-66597849D01*
X179809030Y-66575671D01*
X179800765Y-66552571D01*
X179794804Y-66528773D01*
X179791204Y-66504504D01*
X179790000Y-66480000D01*
X179790000Y-65280000D01*
X179791204Y-65255496D01*
X179794804Y-65231227D01*
X179800765Y-65207429D01*
X179809030Y-65184329D01*
X179819520Y-65162151D01*
X179832133Y-65141107D01*
X179846747Y-65121402D01*
X179863223Y-65103223D01*
X179881402Y-65086747D01*
X179901107Y-65072133D01*
X179922151Y-65059520D01*
X179944329Y-65049030D01*
X179967429Y-65040765D01*
X179991227Y-65034804D01*
X180015496Y-65031204D01*
X180040000Y-65030000D01*
X181240000Y-65030000D01*
X181264504Y-65031204D01*
G37*
G04 #@! TD.AperFunction*
D11*
X181190000Y-66430000D03*
X180640000Y-66430000D03*
X180090000Y-66430000D03*
X181190000Y-65880000D03*
X180640000Y-65880000D03*
X180090000Y-65880000D03*
X181190000Y-65330000D03*
X180640000Y-65330000D03*
X180090000Y-65330000D03*
G04 #@! TA.AperFunction,Conductor*
D10*
G36*
X181264504Y-71479954D02*
G01*
X181288773Y-71483554D01*
X181312571Y-71489515D01*
X181335671Y-71497780D01*
X181357849Y-71508270D01*
X181378893Y-71520883D01*
X181398598Y-71535497D01*
X181416777Y-71551973D01*
X181433253Y-71570152D01*
X181447867Y-71589857D01*
X181460480Y-71610901D01*
X181470970Y-71633079D01*
X181479235Y-71656179D01*
X181485196Y-71679977D01*
X181488796Y-71704246D01*
X181490000Y-71728750D01*
X181490000Y-72928750D01*
X181488796Y-72953254D01*
X181485196Y-72977523D01*
X181479235Y-73001321D01*
X181470970Y-73024421D01*
X181460480Y-73046599D01*
X181447867Y-73067643D01*
X181433253Y-73087348D01*
X181416777Y-73105527D01*
X181398598Y-73122003D01*
X181378893Y-73136617D01*
X181357849Y-73149230D01*
X181335671Y-73159720D01*
X181312571Y-73167985D01*
X181288773Y-73173946D01*
X181264504Y-73177546D01*
X181240000Y-73178750D01*
X180040000Y-73178750D01*
X180015496Y-73177546D01*
X179991227Y-73173946D01*
X179967429Y-73167985D01*
X179944329Y-73159720D01*
X179922151Y-73149230D01*
X179901107Y-73136617D01*
X179881402Y-73122003D01*
X179863223Y-73105527D01*
X179846747Y-73087348D01*
X179832133Y-73067643D01*
X179819520Y-73046599D01*
X179809030Y-73024421D01*
X179800765Y-73001321D01*
X179794804Y-72977523D01*
X179791204Y-72953254D01*
X179790000Y-72928750D01*
X179790000Y-71728750D01*
X179791204Y-71704246D01*
X179794804Y-71679977D01*
X179800765Y-71656179D01*
X179809030Y-71633079D01*
X179819520Y-71610901D01*
X179832133Y-71589857D01*
X179846747Y-71570152D01*
X179863223Y-71551973D01*
X179881402Y-71535497D01*
X179901107Y-71520883D01*
X179922151Y-71508270D01*
X179944329Y-71497780D01*
X179967429Y-71489515D01*
X179991227Y-71483554D01*
X180015496Y-71479954D01*
X180040000Y-71478750D01*
X181240000Y-71478750D01*
X181264504Y-71479954D01*
G37*
G04 #@! TD.AperFunction*
D11*
X181190000Y-72878750D03*
X180640000Y-72878750D03*
X180090000Y-72878750D03*
X181190000Y-72328750D03*
X180640000Y-72328750D03*
X180090000Y-72328750D03*
X181190000Y-71778750D03*
X180640000Y-71778750D03*
X180090000Y-71778750D03*
M02*
